<?xml version="1.0" encoding="utf-8"?>
<!-- Svg Vector Icons : http://www.onlinewebfonts.com/icon -->
<!DOCTYPE svg PUBLIC "-//W3C//DTD SVG 1.1//EN" "http://www.w3.org/Graphics/SVG/1.1/DTD/svg11.dtd">
<svg version="1.1" xmlns="http://www.w3.org/2000/svg" xmlns:xlink="http://www.w3.org/1999/xlink" x="0px" y="0px" viewBox="0 0 256 256" enable-background="new 0 0 256 256" xml:space="preserve">
<metadata> Svg Vector Icons : http://www.onlinewebfonts.com/icon </metadata>
<g><g><path fill="#000000" d="M105.9,219.2C105.9,219.2,105.9,219.2,105.9,219.2c0.5,0.8,1.3,1.4,2.1,1.9"/><path fill="#000000" d="M183.3,216.7"/><path fill="#000000" d="M184.8,221.5"/><path fill="#000000" d="M152.6,225v1V225z"/><path fill="#000000" d="M104.9,79.1c3.2,0,5.9-4.6,5.9-7.9s-2.6-8-5.9-8H58.1c-1.4,0-2.7,0.9-3.7,2.1c-3.1,0.2-6.3,2.7-6.3,5.9v50.2c0,3.2,3.2,6.5,6.4,6.5c3.2,0,9.8-2.6,9.8-5.9V92.8l42.9,34.7l8.3-8.3L82.4,79.1H104.9z M186.8,136.1c-3.2,0-9.8,2.6-9.8,5.9v29.3l-42.9-34.7l-8.3,8.3l33.1,40.1h-22.6c-3.2,0-5.9,4.6-5.9,7.9c0,3.2,2.6,8,5.9,8h46.8c1.4,0,2.7-0.9,3.7-2.1c3.1-0.2,6.3-2.7,6.3-5.8v-50.2C193.2,139.4,190,136.1,186.8,136.1z M230.8,10H25.2C16.8,10,10,16.8,10,25.2v205.5c0,8.4,6.8,15.2,15.2,15.2h205.6c8.4,0,15.2-6.8,15.2-15.2V25.2C246,16.8,239.2,10,230.8,10z M230.8,215.6c0,8.4-6.8,15.2-15.2,15.2H40.5c-8.4,0-15.2-6.8-15.2-15.2V40.5c0-8.4,6.8-15.2,15.2-15.2h175.1c8.4,0,15.2,6.8,15.2,15.2V215.6z"/></g></g>
</svg>